#N canvas 276 92 1088 593 12;
#X text 923 21 AUDIO;
#X obj 75 313 fiddle~ 1024 1 20 3;
#X obj 74 33 adc~;
#X obj 75 144 *~;
#X text 110 32 Entrada de Audio;
#X obj 43 335 vsl 15 100 0 127 0 0 empty empty empty 0 -9 0 10 -262144
-1 -1 7123 1;
#X obj 75 383 pack 0 100;
#X obj 96 82 hsl 100 15 0 1 0 0 empty empty empty -2 -8 0 10 -262144
-1 -1 2200 1;
#X floatatom 96 98 5 0 0 0 - - -;
#X obj 76 269 *~ 1;
#X obj 521 511 sendOSC 12000;
#X msg 625 371 [;
#X msg 558 371 ];
#X msg 521 72 connect localhost 12000;
#X msg 530 114 disconnect;
#X msg 591 463 send /datos \$1 \, send /vel \$2;
#X obj 558 289 t b list b;
#X obj 521 33 loadbang;
#X floatatom 75 445 5 0 0 0 - - -;
#X floatatom 296 394 5 0 100 0 - - -;
#X obj 101 246 tgl 15 0 empty empty empty 17 7 0 10 -262144 -1 -1 0
1;
#X obj 230 84 vsl 15 100 0 127 0 0 empty empty empty 0 -9 0 10 -262144
-1 -1 5457 1;
#X floatatom 230 198 5 0 0 0 - - -;
#X msg 271 62 70;
#X obj 271 33 loadbang;
#N canvas 449 115 486 380 ruido 0;
#X obj 144 167 env~;
#X floatatom 144 203 5 0 0 0 - - -;
#X obj 144 312 tgl 15 0 empty empty empty 17 7 0 10 -262144 -1 -1 0
1;
#X obj 144 284 change;
#X obj 144 105 inlet~;
#X text 60 102 audio in;
#X obj 254 105 inlet;
#X obj 144 338 outlet;
#X text 309 103 umbral nivel;
#X obj 144 248 > 60;
#X text 132 26 UMBRAL RUIDO;
#X connect 0 0 1 0;
#X connect 1 0 9 0;
#X connect 2 0 7 0;
#X connect 3 0 2 0;
#X connect 4 0 0 0;
#X connect 6 0 9 1;
#X connect 9 0 3 0;
#X restore 101 217 pd ruido;
#X obj 558 258 pack;
#X obj 558 221 t b f;
#X obj 296 333 pack 0 50;
#X obj 75 478 mtof;
#X floatatom 75 512 5 0 0 0 - - -;
#X obj 357 413 s amp;
#X obj 455 201 r amp;
#X obj 124 464 s fre;
#X obj 455 238 r fre;
#X text 215 313 FFT;
#X text 271 199 Umbral de Ruido;
#X text 619 511 Salida por OSC a través del Puerto 12000;
#X text 136 99 Amplitud;
#X text 119 243 Compuerta-Filtro;
#X text 58 533 Frecuencia;
#X text 287 417 Amplitud;
#X obj 925 67 tgl 25 0 empty empty empty 17 7 0 10 -262144 -1 -1 1
1;
#X text 955 69 ON - OFF;
#N canvas 0 0 1366 704 dsponoff 0;
#X obj 55 249 select 0 1;
#X msg 88 271 6;
#X obj 55 80 route dsp;
#X obj 55 59 receive pd;
#X obj 169 161 loadbang;
#X msg -26 243 dsp \$1;
#X obj -26 268 send pd;
#X msg 169 301 set \$1;
#X obj 169 197 value GLOBAL_PDDP_DSP;
#X msg 72 301 color \$1 20 12;
#X obj 143 332 send \$0-dsp-toggle;
#X obj 55 138 change;
#X msg 55 270 0;
#X obj -26 36 inlet;
#X connect 0 0 12 0;
#X connect 0 1 1 0;
#X connect 1 0 9 0;
#X connect 2 0 11 0;
#X connect 3 0 2 0;
#X connect 4 0 8 0;
#X connect 5 0 6 0;
#X connect 7 0 10 0;
#X connect 8 0 7 0;
#X connect 8 0 0 0;
#X connect 9 0 10 0;
#X connect 11 0 7 0;
#X connect 11 0 0 0;
#X connect 11 0 8 0;
#X connect 12 0 9 0;
#X connect 13 0 5 0;
#X connect 13 0 11 0;
#X restore 925 102 pd dsponoff;
#X obj 925 41 loadbang;
#X obj 296 363 line;
#X obj 187 359 bng 15 250 50 0 empty empty empty 17 7 0 10 -262144
-1 -1;
#X connect 1 0 5 0;
#X connect 1 0 6 0;
#X connect 1 1 47 0;
#X connect 1 3 28 0;
#X connect 2 0 3 0;
#X connect 3 0 9 0;
#X connect 3 0 25 0;
#X connect 6 0 18 0;
#X connect 7 0 8 0;
#X connect 7 0 3 1;
#X connect 9 0 1 0;
#X connect 11 0 10 0;
#X connect 12 0 10 0;
#X connect 13 0 10 0;
#X connect 14 0 10 0;
#X connect 15 0 10 0;
#X connect 16 0 12 0;
#X connect 16 1 15 0;
#X connect 16 2 11 0;
#X connect 17 0 13 0;
#X connect 18 0 29 0;
#X connect 18 0 33 0;
#X connect 19 0 31 0;
#X connect 20 0 9 1;
#X connect 21 0 22 0;
#X connect 22 0 25 1;
#X connect 23 0 21 0;
#X connect 24 0 23 0;
#X connect 25 0 20 0;
#X connect 26 0 16 0;
#X connect 27 0 26 0;
#X connect 27 1 26 1;
#X connect 28 0 46 0;
#X connect 29 0 30 0;
#X connect 32 0 27 0;
#X connect 34 0 26 0;
#X connect 42 0 44 0;
#X connect 45 0 42 0;
#X connect 46 0 19 0;
